<?xml version="1.0" encoding="UTF-8"?>
<svg id="Layer_1" data-name="Layer 1" xmlns="http://www.w3.org/2000/svg" viewBox="0 0 440.23 437.28">
  <defs>
    <style>
      .cls-1 {
        fill: #c7b299;
      }

      .cls-2 {
        fill: #603813;
      }

      .cls-3 {
        fill: #c69c6d;
      }

      .cls-4, .cls-5 {
        fill: #42210b;
      }

      .cls-5 {
        font-family: Ravie, Ravie;
        font-size: 48px;
      }
    </style>
  </defs>
  <g>
    <path class="cls-1" d="m221.61,428.28c-29.55,0-58.39-6.09-85.71-18.11C29.18,363.25-19.85,239.15,26.59,133.54,59.85,57.89,135.23,9,218.62,9c29.55,0,58.39,6.09,85.71,18.11,106.71,46.92,155.75,171.02,109.31,276.63-33.27,75.66-108.65,124.54-192.04,124.54Z"/>
    <path class="cls-2" d="m218.64,18c28.28,0,55.89,5.84,82.07,17.35,25.04,11.01,47.19,26.54,65.83,46.16,18,18.94,32,40.89,41.62,65.23,9.6,24.32,14.34,49.79,14.06,75.71-.28,26.81-5.94,52.95-16.81,77.68-15.89,36.13-41.87,66.42-75.14,87.58-32.49,20.67-70.07,31.59-108.66,31.59-28.29,0-55.91-5.84-82.09-17.35-25.04-11.01-47.19-26.54-65.83-46.16-18-18.94-32-40.89-41.62-65.23-9.6-24.32-14.33-49.79-14.06-75.71.28-26.81,5.94-52.95,16.81-77.68,15.89-36.13,41.87-66.41,75.14-87.57,32.49-20.66,70.06-31.59,108.68-31.59h0M218.62,0C134.3,0,54.18,48.43,18.35,129.92c-48.51,110.33,2.49,239.49,113.93,288.49,29.13,12.81,59.49,18.87,89.34,18.87,84.33,0,164.44-48.43,200.28-129.92,48.51-110.33-2.49-239.49-113.93-288.49C278.83,6.06,248.47,0,218.62,0h0Z"/>
  </g>
  <g>
    <path class="cls-3" d="m240.99,383.46c-5.58,0-11.1-1.48-15.96-4.29l-147.45-85.13c-7.4-4.27-12.7-11.17-14.91-19.43-2.21-8.26-1.08-16.88,3.2-24.28l104.25-180.56c5.7-9.87,16.33-16.01,27.75-16.01,5.58,0,11.1,1.48,15.97,4.29l147.46,85.13c15.28,8.82,20.54,28.43,11.71,43.71l-104.25,180.56c-5.7,9.87-16.33,16.01-27.75,16.01Z"/>
    <path class="cls-4" d="m197.85,48.75v10c4.7,0,9.36,1.25,13.46,3.62l147.45,85.13c6.25,3.61,10.71,9.43,12.58,16.39,1.87,6.97.91,14.24-2.7,20.49l-104.25,180.56c-4.81,8.33-13.78,13.51-23.42,13.51-4.7,0-9.36-1.25-13.47-3.62l-147.45-85.13c-6.25-3.61-10.71-9.43-12.58-16.39-1.87-6.97-.91-14.24,2.7-20.49l104.25-180.56c4.81-8.33,13.78-13.51,23.42-13.51v-10m0,0c-12.79,0-25.22,6.64-32.08,18.51L61.52,247.82c-10.22,17.7-4.15,40.33,13.54,50.54l147.45,85.13c5.83,3.36,12.19,4.96,18.47,4.96,12.79,0,25.22-6.64,32.08-18.51l104.25-180.56c10.22-17.7,4.15-40.33-13.54-50.54L216.31,53.72c-5.83-3.36-12.19-4.96-18.47-4.96h0Z"/>
  </g>
  <text class="cls-5" transform="translate(105.82 232.01)"><tspan x="0" y="0">COFFEE</tspan></text>
</svg>