<?xml version="1.0" encoding="UTF-8"?>
<svg id="canadapost" xmlns="http://www.w3.org/2000/svg" viewBox="0 0 503 291.02">
  <defs>
    <style>
      .cls-1 {
        letter-spacing: 0em;
      }

      .cls-2, .cls-3 {
        stroke-width: 0px;
      }

      .cls-4 {
        fill: #ff0;
      }

      .cls-4, .cls-5 {
        stroke: #000;
        stroke-miterlimit: 10;
        stroke-width: 5px;
      }

      .cls-3, .cls-5 {
        fill: red;
      }

      .cls-6 {
        font-family: CopperplateGothic-Bold, 'Copperplate Gothic Bold';
        font-size: 55px;
        font-weight: 700;
      }

      .cls-7 {
        letter-spacing: 0em;
      }
    </style>
  </defs>
  <g id="cprectangle">
    <g>
      <rect class="cls-3" x="2.5" y="2.5" width="498" height="286.02" rx="31.7" ry="31.7"/>
      <path class="cls-2" d="M468.8,5c16.1,0,29.2,13.1,29.2,29.2v222.62c0,16.1-13.1,29.2-29.2,29.2H34.2c-16.1,0-29.2-13.1-29.2-29.2V34.2c0-16.1,13.1-29.2,29.2-29.2h434.59M468.8,0H34.2C15.31,0,0,15.31,0,34.2v222.62c0,18.89,15.31,34.2,34.2,34.2h434.59c18.89,0,34.2-15.31,34.2-34.2V34.2c0-18.89-15.31-34.2-34.2-34.2h0Z"/>
    </g>
  </g>
  <g id="yellowhead">
    <path id="yellow_head" data-name="yellow head" class="cls-4" d="M54.95,15.96l165.19,127.13c16.43,12.65,39.32,12.65,55.76,0L444.18,13.58c4.49-3.45,2.02-10.63-3.64-10.6L58.51,5.36c-5.62.03-8.03,7.16-3.57,10.6Z"/>
  </g>
  <g id="cptext">
    <text class="cls-6" transform="translate(52.97 232.56)"><tspan x="0" y="0">Canada </tspan><tspan class="cls-1" x="253.97" y="0">P</tspan><tspan x="295.65" y="0">o</tspan><tspan class="cls-7" x="334.86" y="0">s</tspan><tspan x="369.21" y="0">t</tspan></text>
  </g>
  <g id="redhead">
    <path id="orange_head" data-name="orange head" class="cls-5" d="M55.74,15.85l165.19,127.13c16.43,12.65,39.32,12.65,55.76,0L444.98,13.48c4.49-3.45,2.02-10.63-3.64-10.6L59.31,5.25c-5.62.03-8.03,7.16-3.57,10.6Z"/>
  </g>
</svg>