<?xml version="1.0" encoding="UTF-8"?>
<svg id="bulb" xmlns="http://www.w3.org/2000/svg" viewBox="0 0 114 163">
  <defs>
    <style>
      .cls-1 {
        fill: #999;
      }

      .cls-1, .cls-2, .cls-3, .cls-4 {
        stroke-width: 0px;
      }

      .cls-2 {
        fill: #666;
      }

      .cls-4, .cls-5 {
        fill: #fff;
      }

      .cls-5 {
        stroke: #000;
        stroke-miterlimit: 10;
      }
    </style>
  </defs>
  <g id="base">
    <g id="bottom">
      <g>
        <ellipse class="cls-1" cx="56.5" cy="139.5" rx="26" ry="23"/>
        <path class="cls-3" d="M56.5,117c14.06,0,25.5,10.09,25.5,22.5s-11.44,22.5-25.5,22.5-25.5-10.09-25.5-22.5,11.44-22.5,25.5-22.5M56.5,116c-14.64,0-26.5,10.52-26.5,23.5s11.86,23.5,26.5,23.5,26.5-10.52,26.5-23.5-11.86-23.5-26.5-23.5h0Z"/>
      </g>
      <g>
        <path class="cls-2" d="M25.5,130.5c-2.21,0-4-1.79-4-4s1.79-4,4-4h63c2.21,0,4,1.79,4,4s-1.79,4-4,4H25.5Z"/>
        <path class="cls-3" d="M88.5,123c1.93,0,3.5,1.57,3.5,3.5s-1.57,3.5-3.5,3.5H25.5c-1.93,0-3.5-1.57-3.5-3.5s1.57-3.5,3.5-3.5h63M88.5,122H25.5c-2.49,0-4.5,2.01-4.5,4.5s2.01,4.5,4.5,4.5h63c2.49,0,4.5-2.01,4.5-4.5s-2.01-4.5-4.5-4.5h0Z"/>
      </g>
      <g>
        <path class="cls-2" d="M25.5,138.5c-2.21,0-4-1.79-4-4s1.79-4,4-4h63c2.21,0,4,1.79,4,4s-1.79,4-4,4H25.5Z"/>
        <path class="cls-3" d="M88.5,131c1.93,0,3.5,1.57,3.5,3.5s-1.57,3.5-3.5,3.5H25.5c-1.93,0-3.5-1.57-3.5-3.5s1.57-3.5,3.5-3.5h63M88.5,130H25.5c-2.49,0-4.5,2.01-4.5,4.5s2.01,4.5,4.5,4.5h63c2.49,0,4.5-2.01,4.5-4.5s-2.01-4.5-4.5-4.5h0Z"/>
      </g>
      <g>
        <path class="cls-2" d="M25.5,146.5c-2.21,0-4-1.79-4-4s1.79-4,4-4h63c2.21,0,4,1.79,4,4s-1.79,4-4,4H25.5Z"/>
        <path class="cls-3" d="M88.5,139c1.93,0,3.5,1.57,3.5,3.5s-1.57,3.5-3.5,3.5H25.5c-1.93,0-3.5-1.57-3.5-3.5s1.57-3.5,3.5-3.5h63M88.5,138H25.5c-2.49,0-4.5,2.01-4.5,4.5s2.01,4.5,4.5,4.5h63c2.49,0,4.5-2.01,4.5-4.5s-2.01-4.5-4.5-4.5h0Z"/>
      </g>
    </g>
  </g>
  <g id="ring">
    <g id="light">
      <path class="cls-4" d="M30.38,122.5c-3.8,0-6.88-3.09-6.88-6.88v-16.73l-.21-.15C8.81,88.34.5,72.39.5,55,.5,24.95,25.85.5,57,.5s56.5,24.45,56.5,54.5c0,17.59-8.89,34.19-23.78,44.42l-.22.15v16.05c0,3.8-3.09,6.88-6.88,6.88H30.38Z"/>
      <path class="cls-3" d="M57,1c30.88,0,56,24.22,56,54,0,17.42-8.81,33.87-23.57,44.01l-.43.3v16.31c0,3.52-2.86,6.38-6.38,6.38H30.38c-3.52,0-6.38-2.86-6.38-6.38v-16.98l-.42-.3C9.23,88.02,1,72.23,1,55,1,25.22,26.12,1,57,1M57,0C25.52,0,0,24.62,0,55c0,18.08,9.04,34.12,23,44.14v16.47c0,4.08,3.31,7.38,7.38,7.38h52.23c4.08,0,7.38-3.31,7.38-7.38v-15.78c14.52-9.97,24-26.33,24-44.83C114,24.62,88.48,0,57,0h0Z"/>
    </g>
  </g>
  <g id="fillament">
    <path id="filament" class="cls-5" d="M47.5,42.5l2.27,79.5h18.15V41.23s6.58-15.27,15.08,0-53,12-53,12c0,0-5.19-19.84,7.15-18.79s10.35,8.06,10.35,8.06Z"/>
  </g>
</svg>