<?xml version="1.0" encoding="UTF-8"?>
<svg id="clock" xmlns="http://www.w3.org/2000/svg" viewBox="0 0 364.88 237.13">
  <defs>
    <style>
      .cls-1, .cls-2 {
        stroke-width: 0px;
      }

      .cls-2 {
        fill: #534741;
      }
    </style>
  </defs>
  <g id="clockbase">
    <g>
      <rect class="cls-2" width="364.88" height="237.13" rx="23.73" ry="23.73"/>
      <path class="cls-1" d="M178.33,1.84c.68,2.64,1.22,5.57,1.7,8.26.23,1.65.56,3.91.98,5.51.54,3.01-.64,5.91-2.67,8.26,0,0-.6,0-.6,0-2.03-2.35-3.21-5.25-2.67-8.26.41-1.59.75-3.87.98-5.51.48-2.69,1.02-5.61,1.7-8.26,0,0,.6,0,.6,0h0Z"/>
      <path class="cls-1" d="M177,234.56c-.68-2.64-1.22-5.57-1.7-8.26-.23-1.65-.56-3.91-.98-5.51-.54-3.01.64-5.91,2.67-8.26,0,0,.6,0,.6,0,2.03,2.35,3.21,5.25,2.67,8.26-.41,1.59-.75,3.87-.98,5.51-.48,2.69-1.02,5.61-1.7,8.26,0,0-.6,0-.6,0h0Z"/>
      <g>
        <line class="cls-2" x1="362.31" y1="122.97" x2="340.28" y2="122.97"/>
        <path class="cls-1" d="M362.31,123.27c-2.64.68-5.57,1.22-8.26,1.7-1.65.23-3.91.56-5.51.98-3.01.54-5.91-.64-8.26-2.67,0,0,0-.6,0-.6,2.35-2.03,5.25-3.21,8.26-2.67,1.59.41,3.87.75,5.51.98,2.69.48,5.61,1.02,8.26,1.7,0,0,0,.6,0,.6h0Z"/>
      </g>
      <path class="cls-1" d="M4.77,122.67c2.64-.68,5.57-1.22,8.26-1.7,1.65-.23,3.91-.56,5.51-.98,3.01-.54,5.91.64,8.26,2.67,0,0,0,.6,0,.6-2.35,2.03-5.25,3.21-8.26,2.67-1.59-.41-3.87-.75-5.51-.98-2.69-.48-5.61-1.02-8.26-1.7,0,0,0-.6,0-.6h0Z"/>
    </g>
  </g>
  <g id="clockring">
    <circle class="cls-1" cx="177.5" cy="128" r="3"/>
  </g>
  <g id="needle1">
    <path class="cls-1" d="M177.5,39.01c1.04,3.72,1.78,7.45,2.53,11.17-.05,3.72-.01,7.45-.03,11.17v22.35c0,7.36,0,26.4,0,33.52-.76,3.72-1.5,7.45-2.5,11.17-1-3.72-1.74-7.45-2.5-11.17,0-7.04,0-26.23,0-33.52,0,0,0-22.35,0-22.35-.01-3.72.02-7.45-.03-11.17.75-3.72,1.48-7.45,2.53-11.17h0Z"/>
  </g>
  <g id="needle2">
    <g>
      <line class="cls-2" x1="176.5" y1="128.5" x2="238.5" y2="128.5"/>
      <path class="cls-1" d="M176.5,128.5c2.58-.63,5.17-1.07,7.75-1.52,4.88.02,18.19.02,23.25.02,5.1,0,18.31,0,23.25,0,2.58.46,5.17.9,7.75,1.5-2.58.6-5.17,1.04-7.75,1.5-4.88,0-18.19,0-23.25,0,0,0-15.5,0-15.5,0h-7.75c-2.58-.43-5.17-.87-7.75-1.5h0Z"/>
    </g>
  </g>
</svg>